# xmcd
#
# Track frame offsets: 
#        150
#        17683
#        39080
#        54131
#        75672
#        89847
#        117458
#        134847
#        142754
#        154054
#
# Disc length: 2458 seconds
#
# Revision: 0
# Processed by: cddbd v1.5.2PL0 Copyright (c) Steve Scherf et al.
# Submitted via: ExactAudioCopyFreeDBPlugin 1.0
#
DISCID=7b09980a
DTITLE=Teitur - Story Music
DYEAR=2013
DGENRE=pop
TTITLE0=Hopeful
TTITLE1=If You Wait
TTITLE2=Antonio And His Mobile Phones
TTITLE3=Rock And Roll Band
TTITLE4=Hard Work
TTITLE5=It's Not Funny Anymore
TTITLE6=Monday
TTITLE7=Indie Girl
TTITLE8=Gone Fishing - The Palindrome Song
TTITLE9=Walking Up A Hill
EXTD=
EXTT0=
EXTT1=
EXTT2=
EXTT3=
EXTT4=
EXTT5=
EXTT6=
EXTT7=
EXTT8=
EXTT9=
PLAYORDER=
